<svg width="128" height="128" xmlns="http://www.w3.org/2000/svg">

 <g>
  <title>Layer 1</title>
  <g>
   <circle r="64" id="svg_47" fill="#3498db" cy="63.99999" cx="64"/>
   <g stroke="null" id="svg_2">
    <path stroke="null" id="svg_46" fill="#B3B3B3" d="m108.76818,90.22136l-89.53635,0c-2.814,0 -5.11636,-2.30236 -5.11636,-5.11636l0,-42.21c0,-2.814 2.30236,-5.11636 5.11636,-5.11636l89.53635,0c2.814,0 5.11636,2.30236 5.11636,5.11636l0,42.21c0,2.814 -2.30236,5.11636 -5.11636,5.11636z"/>
    <g stroke="null" id="svg_40">
     <path stroke="null" id="svg_45" fill="#FFFFFF" d="m24.34819,85.105l-2.55818,0c-1.407,0 -2.55818,-1.15118 -2.55818,-2.55818l0,-1.27909c0,-1.407 1.15118,-2.55818 2.55818,-2.55818l2.55818,0c1.407,0 2.55818,1.15118 2.55818,2.55818l0,1.27909c0,1.407 -1.15118,2.55818 -2.55818,2.55818z"/>
     <path stroke="null" id="svg_44" fill="#FFFFFF" d="m34.58091,85.105l-2.55818,0c-1.407,0 -2.55818,-1.15118 -2.55818,-2.55818l0,-1.27909c0,-1.407 1.15118,-2.55818 2.55818,-2.55818l2.55818,0c1.407,0 2.55818,1.15118 2.55818,2.55818l0,1.27909c0,1.407 -1.15118,2.55818 -2.55818,2.55818z"/>
     <path stroke="null" id="svg_43" fill="#FFFFFF" d="m95.97727,85.105l-2.55818,0c-1.407,0 -2.55818,-1.15118 -2.55818,-2.55818l0,-1.27909c0,-1.407 1.15118,-2.55818 2.55818,-2.55818l2.55818,0c1.407,0 2.55818,1.15118 2.55818,2.55818l0,1.27909c0,1.407 -1.15118,2.55818 -2.55818,2.55818z"/>
     <path stroke="null" id="svg_42" fill="#FFFFFF" d="m106.20999,85.105l-2.55818,0c-1.407,0 -2.55818,-1.15118 -2.55818,-2.55818l0,-1.27909c0,-1.407 1.15118,-2.55818 2.55818,-2.55818l2.55818,0c1.407,0 2.55818,1.15118 2.55818,2.55818l0,1.27909c0,1.407 -1.15118,2.55818 -2.55818,2.55818z"/>
     <path stroke="null" id="svg_41" fill="#FFFFFF" d="m85.74454,85.105l-43.48909,0c-1.407,0 -2.55818,-1.15118 -2.55818,-2.55818l0,-1.27909c0,-1.407 1.15118,-2.55818 2.55818,-2.55818l43.48909,0c1.407,0 2.55818,1.15118 2.55818,2.55818l0,1.27909c0,1.407 -1.15118,2.55818 -2.55818,2.55818z"/>
    </g>
    <g stroke="null" id="svg_32">
     <path stroke="null" id="svg_39" fill="#FFFFFF" d="m44.81364,76.15136l-2.55818,0c-1.407,0 -2.55818,-1.15118 -2.55818,-2.55818l0,-1.27909c0,-1.407 1.15118,-2.55818 2.55818,-2.55818l2.55818,0c1.407,0 2.55818,1.15118 2.55818,2.55818l0,1.27909c0,1.407 -1.15118,2.55818 -2.55818,2.55818z"/>
     <path stroke="null" id="svg_38" fill="#FFFFFF" d="m55.04636,76.15136l-2.55818,0c-1.407,0 -2.55818,-1.15118 -2.55818,-2.55818l0,-1.27909c0,-1.407 1.15118,-2.55818 2.55818,-2.55818l2.55818,0c1.407,0 2.55818,1.15118 2.55818,2.55818l0,1.27909c0,1.407 -1.15118,2.55818 -2.55818,2.55818z"/>
     <path stroke="null" id="svg_37" fill="#FFFFFF" d="m65.27909,76.15136l-2.55818,0c-1.407,0 -2.55818,-1.15118 -2.55818,-2.55818l0,-1.27909c0,-1.407 1.15118,-2.55818 2.55818,-2.55818l2.55818,0c1.407,0 2.55818,1.15118 2.55818,2.55818l0,1.27909c0,1.407 -1.15118,2.55818 -2.55818,2.55818z"/>
     <path stroke="null" id="svg_36" fill="#FFFFFF" d="m75.51182,76.15136l-2.55818,0c-1.407,0 -2.55818,-1.15118 -2.55818,-2.55818l0,-1.27909c0,-1.407 1.15118,-2.55818 2.55818,-2.55818l2.55818,0c1.407,0 2.55818,1.15118 2.55818,2.55818l0,1.27909c0,1.407 -1.15118,2.55818 -2.55818,2.55818z"/>
     <path stroke="null" id="svg_35" fill="#FFFFFF" d="m85.74454,76.15136l-2.55818,0c-1.407,0 -2.55818,-1.15118 -2.55818,-2.55818l0,-1.27909c0,-1.407 1.15118,-2.55818 2.55818,-2.55818l2.55818,0c1.407,0 2.55818,1.15118 2.55818,2.55818l0,1.27909c0,1.407 -1.15118,2.55818 -2.55818,2.55818z"/>
     <path stroke="null" id="svg_34" fill="#FFFFFF" d="m106.20999,76.15136l-12.79091,0c-1.407,0 -2.55818,-1.15118 -2.55818,-2.55818l0,-1.27909c0,-1.407 1.15118,-2.55818 2.55818,-2.55818l12.79091,0c1.407,0 2.55818,1.15118 2.55818,2.55818l0,1.27909c0,1.407 -1.15118,2.55818 -2.55818,2.55818z"/>
     <path stroke="null" id="svg_33" fill="#FFFFFF" d="m34.58091,76.15136l-12.79091,0c-1.407,0 -2.55818,-1.15118 -2.55818,-2.55818l0,-1.27909c0,-1.407 1.15118,-2.55818 2.55818,-2.55818l12.79091,0c1.407,0 2.55818,1.15118 2.55818,2.55818l0,1.27909c0,1.407 -1.15118,2.55818 -2.55818,2.55818z"/>
    </g>
    <g stroke="null" id="svg_22">
     <path stroke="null" id="svg_31" fill="#FFFFFF" d="m24.34819,67.19773l-2.55818,0c-1.407,0 -2.55818,-1.15118 -2.55818,-2.55818l0,-1.27909c0,-1.407 1.15118,-2.55818 2.55818,-2.55818l2.55818,0c1.407,0 2.55818,1.15118 2.55818,2.55818l0,1.27909c0,1.407 -1.15118,2.55818 -2.55818,2.55818z"/>
     <path stroke="null" id="svg_30" fill="#FFFFFF" d="m34.58091,67.19773l-2.55818,0c-1.407,0 -2.55818,-1.15118 -2.55818,-2.55818l0,-1.27909c0,-1.407 1.15118,-2.55818 2.55818,-2.55818l2.55818,0c1.407,0 2.55818,1.15118 2.55818,2.55818l0,1.27909c0,1.407 -1.15118,2.55818 -2.55818,2.55818z"/>
     <path stroke="null" id="svg_29" fill="#FFFFFF" d="m44.81364,67.19773l-2.55818,0c-1.407,0 -2.55818,-1.15118 -2.55818,-2.55818l0,-1.27909c0,-1.407 1.15118,-2.55818 2.55818,-2.55818l2.55818,0c1.407,0 2.55818,1.15118 2.55818,2.55818l0,1.27909c0,1.407 -1.15118,2.55818 -2.55818,2.55818z"/>
     <path stroke="null" id="svg_28" fill="#FFFFFF" d="m55.04636,67.19773l-2.55818,0c-1.407,0 -2.55818,-1.15118 -2.55818,-2.55818l0,-1.27909c0,-1.407 1.15118,-2.55818 2.55818,-2.55818l2.55818,0c1.407,0 2.55818,1.15118 2.55818,2.55818l0,1.27909c0,1.407 -1.15118,2.55818 -2.55818,2.55818z"/>
     <path stroke="null" id="svg_27" fill="#FFFFFF" d="m65.27909,67.19773l-2.55818,0c-1.407,0 -2.55818,-1.15118 -2.55818,-2.55818l0,-1.27909c0,-1.407 1.15118,-2.55818 2.55818,-2.55818l2.55818,0c1.407,0 2.55818,1.15118 2.55818,2.55818l0,1.27909c0,1.407 -1.15118,2.55818 -2.55818,2.55818z"/>
     <path stroke="null" id="svg_26" fill="#FFFFFF" d="m75.51182,67.19773l-2.55818,0c-1.407,0 -2.55818,-1.15118 -2.55818,-2.55818l0,-1.27909c0,-1.407 1.15118,-2.55818 2.55818,-2.55818l2.55818,0c1.407,0 2.55818,1.15118 2.55818,2.55818l0,1.27909c0,1.407 -1.15118,2.55818 -2.55818,2.55818z"/>
     <path stroke="null" id="svg_25" fill="#FFFFFF" d="m85.74454,67.19773l-2.55818,0c-1.407,0 -2.55818,-1.15118 -2.55818,-2.55818l0,-1.27909c0,-1.407 1.15118,-2.55818 2.55818,-2.55818l2.55818,0c1.407,0 2.55818,1.15118 2.55818,2.55818l0,1.27909c0,1.407 -1.15118,2.55818 -2.55818,2.55818z"/>
     <path stroke="null" id="svg_24" fill="#FFFFFF" d="m95.97727,67.19773l-2.55818,0c-1.407,0 -2.55818,-1.15118 -2.55818,-2.55818l0,-1.27909c0,-1.407 1.15118,-2.55818 2.55818,-2.55818l2.55818,0c1.407,0 2.55818,1.15118 2.55818,2.55818l0,1.27909c0,1.407 -1.15118,2.55818 -2.55818,2.55818z"/>
     <path stroke="null" id="svg_23" fill="#FFFFFF" d="m106.20999,67.19773l-2.55818,0c-1.407,0 -2.55818,-1.15118 -2.55818,-2.55818l0,-1.27909c0,-1.407 1.15118,-2.55818 2.55818,-2.55818l2.55818,0c1.407,0 2.55818,1.15118 2.55818,2.55818l0,1.27909c0,1.407 -1.15118,2.55818 -2.55818,2.55818z"/>
    </g>
    <g stroke="null" id="svg_12">
     <path stroke="null" id="svg_21" fill="#FFFFFF" d="m24.34819,58.24409l-2.55818,0c-1.407,0 -2.55818,-1.15118 -2.55818,-2.55818l0,-1.27909c0,-1.407 1.15118,-2.55818 2.55818,-2.55818l2.55818,0c1.407,0 2.55818,1.15118 2.55818,2.55818l0,1.27909c0,1.407 -1.15118,2.55818 -2.55818,2.55818z"/>
     <path stroke="null" id="svg_20" fill="#FFFFFF" d="m34.58091,58.24409l-2.55818,0c-1.407,0 -2.55818,-1.15118 -2.55818,-2.55818l0,-1.27909c0,-1.407 1.15118,-2.55818 2.55818,-2.55818l2.55818,0c1.407,0 2.55818,1.15118 2.55818,2.55818l0,1.27909c0,1.407 -1.15118,2.55818 -2.55818,2.55818z"/>
     <path stroke="null" id="svg_19" fill="#FFFFFF" d="m44.81364,58.24409l-2.55818,0c-1.407,0 -2.55818,-1.15118 -2.55818,-2.55818l0,-1.27909c0,-1.407 1.15118,-2.55818 2.55818,-2.55818l2.55818,0c1.407,0 2.55818,1.15118 2.55818,2.55818l0,1.27909c0,1.407 -1.15118,2.55818 -2.55818,2.55818z"/>
     <path stroke="null" id="svg_18" fill="#FFFFFF" d="m55.04636,58.24409l-2.55818,0c-1.407,0 -2.55818,-1.15118 -2.55818,-2.55818l0,-1.27909c0,-1.407 1.15118,-2.55818 2.55818,-2.55818l2.55818,0c1.407,0 2.55818,1.15118 2.55818,2.55818l0,1.27909c0,1.407 -1.15118,2.55818 -2.55818,2.55818z"/>
     <path stroke="null" id="svg_17" fill="#FFFFFF" d="m65.27909,58.24409l-2.55818,0c-1.407,0 -2.55818,-1.15118 -2.55818,-2.55818l0,-1.27909c0,-1.407 1.15118,-2.55818 2.55818,-2.55818l2.55818,0c1.407,0 2.55818,1.15118 2.55818,2.55818l0,1.27909c0,1.407 -1.15118,2.55818 -2.55818,2.55818z"/>
     <path stroke="null" id="svg_16" fill="#FFFFFF" d="m75.51182,58.24409l-2.55818,0c-1.407,0 -2.55818,-1.15118 -2.55818,-2.55818l0,-1.27909c0,-1.407 1.15118,-2.55818 2.55818,-2.55818l2.55818,0c1.407,0 2.55818,1.15118 2.55818,2.55818l0,1.27909c0,1.407 -1.15118,2.55818 -2.55818,2.55818z"/>
     <path stroke="null" id="svg_15" fill="#FFFFFF" d="m85.74454,58.24409l-2.55818,0c-1.407,0 -2.55818,-1.15118 -2.55818,-2.55818l0,-1.27909c0,-1.407 1.15118,-2.55818 2.55818,-2.55818l2.55818,0c1.407,0 2.55818,1.15118 2.55818,2.55818l0,1.27909c0,1.407 -1.15118,2.55818 -2.55818,2.55818z"/>
     <path stroke="null" id="svg_14" fill="#FFFFFF" d="m95.97727,58.24409l-2.55818,0c-1.407,0 -2.55818,-1.15118 -2.55818,-2.55818l0,-1.27909c0,-1.407 1.15118,-2.55818 2.55818,-2.55818l2.55818,0c1.407,0 2.55818,1.15118 2.55818,2.55818l0,1.27909c0,1.407 -1.15118,2.55818 -2.55818,2.55818z"/>
     <path stroke="null" id="svg_13" fill="#FFFFFF" d="m106.20999,58.24409l-2.55818,0c-1.407,0 -2.55818,-1.15118 -2.55818,-2.55818l0,-1.27909c0,-1.407 1.15118,-2.55818 2.55818,-2.55818l2.55818,0c1.407,0 2.55818,1.15118 2.55818,2.55818l0,1.27909c0,1.407 -1.15118,2.55818 -2.55818,2.55818z"/>
    </g>
    <g stroke="null" id="svg_3">
     <path stroke="null" id="svg_11" fill="#FFFFFF" d="m24.34819,49.29046l-2.55818,0c-1.407,0 -2.55818,-1.15118 -2.55818,-2.55818l0,-1.27909c0,-1.407 1.15118,-2.55818 2.55818,-2.55818l2.55818,0c1.407,0 2.55818,1.15118 2.55818,2.55818l0,1.27909c0,1.407 -1.15118,2.55818 -2.55818,2.55818z"/>
     <path stroke="null" id="svg_10" fill="#FFFFFF" d="m34.58091,49.29046l-2.55818,0c-1.407,0 -2.55818,-1.15118 -2.55818,-2.55818l0,-1.27909c0,-1.407 1.15118,-2.55818 2.55818,-2.55818l2.55818,0c1.407,0 2.55818,1.15118 2.55818,2.55818l0,1.27909c0,1.407 -1.15118,2.55818 -2.55818,2.55818z"/>
     <path stroke="null" id="svg_9" fill="#FFFFFF" d="m44.81364,49.29046l-2.55818,0c-1.407,0 -2.55818,-1.15118 -2.55818,-2.55818l0,-1.27909c0,-1.407 1.15118,-2.55818 2.55818,-2.55818l2.55818,0c1.407,0 2.55818,1.15118 2.55818,2.55818l0,1.27909c0,1.407 -1.15118,2.55818 -2.55818,2.55818z"/>
     <path stroke="null" id="svg_8" fill="#FFFFFF" d="m55.04636,49.29046l-2.55818,0c-1.407,0 -2.55818,-1.15118 -2.55818,-2.55818l0,-1.27909c0,-1.407 1.15118,-2.55818 2.55818,-2.55818l2.55818,0c1.407,0 2.55818,1.15118 2.55818,2.55818l0,1.27909c0,1.407 -1.15118,2.55818 -2.55818,2.55818z"/>
     <path stroke="null" id="svg_7" fill="#FFFFFF" d="m65.27909,49.29046l-2.55818,0c-1.407,0 -2.55818,-1.15118 -2.55818,-2.55818l0,-1.27909c0,-1.407 1.15118,-2.55818 2.55818,-2.55818l2.55818,0c1.407,0 2.55818,1.15118 2.55818,2.55818l0,1.27909c0,1.407 -1.15118,2.55818 -2.55818,2.55818z"/>
     <path stroke="null" id="svg_6" fill="#FFFFFF" d="m75.51182,49.29046l-2.55818,0c-1.407,0 -2.55818,-1.15118 -2.55818,-2.55818l0,-1.27909c0,-1.407 1.15118,-2.55818 2.55818,-2.55818l2.55818,0c1.407,0 2.55818,1.15118 2.55818,2.55818l0,1.27909c0,1.407 -1.15118,2.55818 -2.55818,2.55818z"/>
     <path stroke="null" id="svg_5" fill="#FFFFFF" d="m85.74454,49.29046l-2.55818,0c-1.407,0 -2.55818,-1.15118 -2.55818,-2.55818l0,-1.27909c0,-1.407 1.15118,-2.55818 2.55818,-2.55818l2.55818,0c1.407,0 2.55818,1.15118 2.55818,2.55818l0,1.27909c0,1.407 -1.15118,2.55818 -2.55818,2.55818z"/>
     <path stroke="null" id="svg_4" fill="#FFFFFF" d="m106.20999,49.29046l-12.79091,0c-1.407,0 -2.55818,-1.15118 -2.55818,-2.55818l0,-1.27909c0,-1.407 1.15118,-2.55818 2.55818,-2.55818l12.79091,0c1.407,0 2.55818,1.15118 2.55818,2.55818l0,1.27909c0,1.407 -1.15118,2.55818 -2.55818,2.55818z"/>
    </g>
   </g>
  </g>
  <path stroke="#3498db" stroke-width="3" id="svg_48" d="m49.10401,46.38768l0,35.22463l29.79198,-18.40093l-29.79198,-16.82371z" fill="#ffffff"/>
 </g>
</svg>