<svg xmlns="http://www.w3.org/2000/svg" viewBox="0 0 122.88 96.67"><path d="M19.05 50.25c.83-.01 1.62.23 2.28.65l-.02-1.12c-.02-1.15.44-2.19 1.19-2.95s1.78-1.24 2.93-1.26a4.18 4.18 0 0 1 2.4.72l-.01-.9c-.02-1.15.44-2.19 1.19-2.95s1.78-1.24 2.93-1.26 2.19.44 2.95 1.19 1.24 1.78 1.26 2.93v.91c.66-.46 1.46-.74 2.32-.75 1.15-.02 2.19.44 2.95 1.19s1.24 1.78 1.26 2.93l.24 15.2c.06.35.09.69.09 1.04h0l.02 1.16.1-.1 1.66-1.66c1.75-1.8 3.66-2.2 5.18-1.73.68.21 1.29.59 1.76 1.1.47.5.82 1.14 1 1.84.42 1.68-.09 3.8-2.16 5.69-3.38 3.38-5.56 7.27-9.64 10.28l.13 1.13h.09l1.01 7.89H17.08l1.14-7.89h.12l.17-1.22c-1.3-2.79-3.24-5.3-3.28-8.36l-.29-19.48c-.02-1.15.44-2.19 1.19-2.95a4.13 4.13 0 0 1 2.92-1.27h0 0 0zm75.98 5.25c-.83-.01-1.62.23-2.28.65l.02-1.12c.02-1.15-.44-2.19-1.19-2.95s-1.78-1.24-2.93-1.26a4.18 4.18 0 0 0-2.4.72l.01-.9c.02-1.15-.44-2.19-1.19-2.95s-1.78-1.24-2.93-1.26-2.19.44-2.95 1.19c-.76.74-1.24 1.78-1.26 2.93v.91c-.66-.46-1.46-.74-2.32-.75-1.15-.02-2.19.44-2.95 1.19s-1.24 1.78-1.26 2.93l-.24 15.2c-.05.34-.09.69-.09 1.04h0l-.02 1.16-.1-.1c-.71-.68-1.4-1.39-1.66-1.66-1.75-1.8-3.66-2.2-5.18-1.74-.68.21-1.29.59-1.76 1.1-.47.5-.82 1.14-1 1.84-.42 1.68.09 3.8 2.16 5.69 3.38 3.38 5.56 7.27 9.64 10.28l-.13 1.13h-.09l-1.01 7.89h25.05l-1.13-7.89h-.12l-.17-1.23c1.3-2.79 3.24-5.3 3.28-8.36l.29-19.48c.02-1.15-.44-2.19-1.19-2.95a4.03 4.03 0 0 0-2.9-1.25h0 0 0zm.03-43.26c.08-1.55.32-3.09.55-4.66.5-3.3 1.01-1.88-.11-5.02-.36-.99.16-2.09 1.15-2.44.99-.36 2.09.16 2.44 1.15 1.46 4.07.88 3.12.31 6.88-.21 1.39-.42 2.76-.5 4.09h0a3.58 3.58 0 0 1 2.54 1.05c.05.05.1.1.14.16a3.56 3.56 0 0 1 .91 2.38v.19h11.33c2.49 0 4.76 1.02 6.4 2.66s2.66 3.91 2.66 6.4v41.35c0 2.49-1.02 4.76-2.66 6.4s-3.91 2.66-6.4 2.66h-11.64l.06-3.82h11.58a5.2 5.2 0 0 0 5.23-5.23V25.09a5.2 5.2 0 0 0-1.54-3.69 5.2 5.2 0 0 0-3.69-1.54h-13.24a1.92 1.92 0 0 1-1.92-1.92v-1.87h-4.49v1.87a1.92 1.92 0 0 1-1.92 1.92h0H9.06a5.2 5.2 0 0 0-3.69 1.54 5.2 5.2 0 0 0-1.54 3.69v41.35a5.2 5.2 0 0 0 1.54 3.69 5.2 5.2 0 0 0 3.69 1.54h2.85l.03 2.3c.01.53.05 1.03.12 1.52h-3c-2.49 0-4.76-1.02-6.4-2.66A9 9 0 0 1 0 66.44V25.09c0-2.49 1.02-4.76 2.66-6.4s3.91-2.66 6.4-2.66h81.27v-.19c0-.98.4-1.88 1.05-2.53h0 0 0c.65-.65 1.55-1.05 2.53-1.05h1.15v-.02h0zM58.41 75.49h-6.52a30.83 30.83 0 0 1 .98-1.02l-.01-.01c.95-.89 1.67-1.83 2.19-2.79h2.98c-.18 1.21-.07 2.51.38 3.82h0zM12.26 25.75h7.75a1.92 1.92 0 0 1 1.92 1.92v6.54a1.92 1.92 0 0 1-1.92 1.92h-7.75a1.92 1.92 0 0 1-1.92-1.92v-6.54a1.92 1.92 0 0 1 1.92-1.92h0 0zm15.35 0h7.75a1.92 1.92 0 0 1 1.92 1.92v6.54a1.92 1.92 0 0 1-1.92 1.92h-7.75a1.92 1.92 0 0 1-1.92-1.92v-6.54a1.92 1.92 0 0 1 1.92-1.92h0 0zm15.36 0h7.75a1.92 1.92 0 0 1 1.92 1.92v6.54a1.92 1.92 0 0 1-1.92 1.92h-7.75a1.92 1.92 0 0 1-1.92-1.92v-6.54a1.92 1.92 0 0 1 1.92-1.92h0 0zm15.36 0h7.75A1.92 1.92 0 0 1 68 27.67v6.54a1.92 1.92 0 0 1-1.92 1.92h-7.75a1.92 1.92 0 0 1-1.92-1.92v-6.54c0-1.06.85-1.92 1.92-1.92h0 0zm15.36 0h7.75a1.92 1.92 0 0 1 1.92 1.92v6.54a1.92 1.92 0 0 1-1.92 1.92h-7.75a1.92 1.92 0 0 1-1.92-1.92v-6.54a1.92 1.92 0 0 1 1.92-1.92h0 0zm15.35 0h7.75a1.92 1.92 0 0 1 1.92 1.92v6.54a1.92 1.92 0 0 1-1.92 1.92h-7.75a1.92 1.92 0 0 1-1.92-1.92v-6.54c.01-1.06.87-1.92 1.92-1.92h0 0zm15.36 0h7.75a1.92 1.92 0 0 1 1.92 1.92v6.54a1.92 1.92 0 0 1-1.92 1.92h-7.75a1.92 1.92 0 0 1-1.92-1.92v-6.54a1.92 1.92 0 0 1 1.92-1.92h0 0zm0 14.12h7.75c1.06 0 1.92.87 1.92 1.94v20.68c0 1.07-.86 1.94-1.92 1.94h-7.75c-1.06 0-1.92-.87-1.92-1.94V41.81c0-1.07.86-1.94 1.92-1.94h0 0zm-92.14.17h7.75a1.92 1.92 0 0 1 1.92 1.92v1.24a7.34 7.34 0 0 0-1.78 1.35c-.68.7-1.23 1.53-1.6 2.45-1.87.15-3.54.98-4.77 2.24-.35.36-.67.76-.95 1.19h-.57a1.92 1.92 0 0 1-1.92-1.92v-6.54c0-1.07.86-1.93 1.92-1.93h0 0zm30.71 0h7.75a1.92 1.92 0 0 1 1.92 1.92v6.54a1.92 1.92 0 0 1-1.92 1.92h-4.74l-.01-.84a7.45 7.45 0 0 0-.6-2.85c-.39-.91-.96-1.73-1.65-2.41a7.45 7.45 0 0 0-2.45-1.61c-.07-.03-.14-.06-.22-.08v-.68a1.92 1.92 0 0 1 1.92-1.91h0 0zm15.36 0h7.75A1.92 1.92 0 0 1 68 41.96v6.54a1.92 1.92 0 0 1-1.92 1.92h-7.75a1.92 1.92 0 0 1-1.92-1.92v-6.54c0-1.06.85-1.92 1.92-1.92h0 0zm15.36 0h7.75a1.92 1.92 0 0 1 1.92 1.92v1.31c-.38-.06-.77-.1-1.17-.1a7.5 7.5 0 0 0-2.86.53 7.6 7.6 0 0 0-2.46 1.61 7.43 7.43 0 0 0-1.52 2.14 7.38 7.38 0 0 0-2.54.53c-.36.15-.71.32-1.04.52v-6.52c0-1.08.86-1.94 1.92-1.94h0 0zm15.35 0h7.75a1.92 1.92 0 0 1 1.92 1.92v6.54a1.92 1.92 0 0 1-1.92 1.92h-2.3c-.17-.22-.36-.43-.55-.63-.68-.69-1.5-1.26-2.41-1.65-.8-.34-1.68-.55-2.61-.59-.36-.8-.86-1.52-1.47-2.14-.11-.11-.21-.21-.33-.31v-3.13c.01-1.07.87-1.93 1.92-1.93h0 0zM11.8 64.5a1.92 1.92 0 0 1-1.46-1.87V56.1c0-.85.55-1.57 1.31-1.82v.26l.15 9.81v.15h0zm34.24-10.32h20.05a1.91 1.91 0 0 1 1.9 1.92v6.54a1.91 1.91 0 0 1-1.9 1.92H55.54c-.1-.24-.21-.48-.34-.7a7.73 7.73 0 0 0-1.02-1.45l-.07-.08c-.44-.48-.94-.89-1.49-1.23-.52-.33-1.11-.59-1.74-.79h0-.01c-1.44-.44-3.04-.45-4.67.09l-.07.02-.09-6.24h0zm29.04 34.6l.21-1.59h0c-3.64-3.08-8.99-9.69-10.36-11.1l-.09-.09c-1.05-.95-2-2.4-1.63-3.88a2.35 2.35 0 0 1 .54-1.01c.25-.27.56-.47.93-.58.9-.27 2.09.03 3.28 1.25l1.7 1.7c.67.64 1.35 1.26 1.8 1.51.15.1.33.17.52.17h0l.75-.35.27-3.72.3-16.24c.01-.62.27-1.18.69-1.59a2.24 2.24 0 0 1 1.61-.64 2.28 2.28 0 0 1 1.59.68c.4.41.66.99.65 1.61l-.16 13.57 1.96.02.22-17.93c.01-.62.27-1.18.68-1.59a2.25 2.25 0 0 1 1.61-.65c.62.01 1.19.27 1.59.69a2.25 2.25 0 0 1 .65 1.61l-.21 17.92 2 .02.16-13.61c.01-.62.27-1.19.69-1.59.41-.41.98-.65 1.6-.64s1.19.27 1.59.69a2.25 2.25 0 0 1 .65 1.61l-.17 13.61 1.89.02.11-9a2.28 2.28 0 0 1 .68-1.59c.41-.4.99-.66 1.61-.65s1.19.27 1.59.69a2.24 2.24 0 0 1 .64 1.61l-.11 9-.18 10.48c-.02 2.1-2.22 5.83-3.17 7.86-.08.16-.1.34-.08.51h0l.18 1.24H75.08v-.03zM39 83.54l-.21-1.59h0c3.64-3.08 8.99-9.69 10.35-11.1l.09-.09c1.05-.95 2-2.4 1.63-3.88a2.35 2.35 0 0 0-.54-1.01c-.25-.28-.56-.47-.93-.58-.9-.28-2.09.03-3.28 1.25-.27.28-1 1.02-1.7 1.7-.67.64-1.35 1.26-1.8 1.52a.94.94 0 0 1-.52.16h0l-.75-.35-.27-3.72-.3-16.24c-.01-.62-.27-1.19-.69-1.59a2.24 2.24 0 0 0-1.61-.64 2.28 2.28 0 0 0-1.59.68 2.25 2.25 0 0 0-.65 1.61l.17 13.56-1.95.02-.22-17.93a2.28 2.28 0 0 0-.68-1.59 2.25 2.25 0 0 0-1.61-.65c-.62.01-1.19.27-1.59.69a2.25 2.25 0 0 0-.65 1.61l.21 17.92-2 .02-.17-13.62c-.01-.62-.27-1.18-.69-1.59-.41-.41-.98-.65-1.6-.64s-1.19.27-1.59.69a2.25 2.25 0 0 0-.65 1.61l.17 13.61-1.89.02-.11-9a2.28 2.28 0 0 0-.68-1.59 2.25 2.25 0 0 0-1.61-.65c-.62.01-1.19.27-1.59.69a2.24 2.24 0 0 0-.64 1.61l.11 9 .18 10.48c.02 2.1 2.22 5.83 3.17 7.86a.93.93 0 0 1 .08.51h0l-.18 1.24H39v-.01z"/></svg>
